<svg width="30" height="30" viewBox="0 0 30 30" fill="none" xmlns="http://www.w3.org/2000/svg">
<g clip-path="url(#clip0)">
<path d="M26.5624 30H3.43758C1.54129 30 0 28.4587 0 26.5624V3.43758C0 1.54129 1.54129 0 3.43758 0H26.5624C28.4587 0 30 1.54129 30 3.43758V26.5624C30 28.4587 28.4587 30 26.5624 30ZM3.43758 1.875C2.57629 1.875 1.875 2.57629 1.875 3.43758V26.5624C1.875 27.4237 2.57629 28.125 3.43758 28.125H26.5624C27.4237 28.125 28.125 27.4237 28.125 26.5624V3.43758C28.125 2.57629 27.4237 1.875 26.5624 1.875H3.43758Z" fill="white"/>
<path d="M20.3127 10.6249H9.6875C9.17 10.6249 8.75 10.2049 8.75 9.68744C8.75 9.16994 9.17 8.74994 9.6875 8.74994H20.3127C20.8302 8.74994 21.2502 9.16994 21.2502 9.68744C21.2502 10.2049 20.8302 10.6249 20.3127 10.6249Z" fill="white"/>
<path d="M20.3127 15.9375H9.6875C9.17 15.9375 8.75 15.5175 8.75 15C8.75 14.4825 9.17 14.0625 9.6875 14.0625H20.3127C20.8302 14.0625 21.2502 14.4825 21.2502 15C21.2502 15.5175 20.8302 15.9375 20.3127 15.9375Z" fill="white"/>
<path d="M20.3127 21.2501H9.6875C9.17 21.2501 8.75 20.8301 8.75 20.3126C8.75 19.7951 9.17 19.3751 9.6875 19.3751H20.3127C20.8302 19.3751 21.2502 19.7951 21.2502 20.3126C21.2502 20.8301 20.8302 21.2501 20.3127 21.2501Z" fill="white"/>
</g>
<defs>
<clipPath id="clip0">
<rect width="30" height="30" fill="white"/>
</clipPath>
</defs>
</svg>
