<svg width="50" height="50" viewBox="0 0 50 50" fill="none" xmlns="http://www.w3.org/2000/svg">
<g clip-path="url(#clip0)">
<path d="M45.2824 5.91308C39.7884 5.91308 29.7909 4.79433 26.6596 0.670997C26.1273 -0.165038 24.9627 -0.239452 24.3268 0.558594C20.6398 4.68086 10.6196 5.91308 4.71747 5.91308C3.90848 5.91308 3.25262 6.57139 3.25262 7.38349V30.9095C3.25262 41.5053 15.4498 47.9783 24.6897 49.991C25.8831 50.2503 46.7472 44.9651 46.7472 30.9095V7.38349C46.7472 6.57148 46.0915 5.91308 45.2824 5.91308ZM43.8176 30.9095C43.8176 41.9518 27.4753 46.4289 25 47.0428C22.5246 46.4289 6.18241 41.9517 6.18241 30.9095V8.83711C17.494 8.57597 23.1351 5.31767 25.3779 3.55146C29.8967 7.54824 37.7993 8.70049 43.8177 8.8374V30.9095H43.8176Z" fill="white"/>
<path d="M17.6804 19.0975V23.5576H16.2109C15.402 23.5576 14.7461 24.2159 14.7461 25.028V36.791C14.7461 37.603 15.402 38.2614 16.2109 38.2614H33.7891C34.598 38.2614 35.2539 37.6031 35.2539 36.791V25.0279C35.2539 24.2159 34.598 23.5575 33.7891 23.5575H20.6101V19.0974C20.6101 16.7996 22.4198 14.7352 25.0442 14.7352C27.4404 14.7352 29.3899 16.6921 29.3899 19.0974C29.3899 19.9094 30.0458 20.5678 30.8548 20.5678C31.6638 20.5678 32.3196 19.9095 32.3196 19.0974C32.3196 15.0706 29.0559 11.7945 25.0442 11.7945C20.7787 11.7946 17.6804 15.2033 17.6804 19.0975ZM32.3242 35.3205H17.6758V26.4982H32.3242V35.3205Z" fill="#F85A40"/>
<path d="M25 32.3799C25.809 32.3799 26.4648 31.7215 26.4648 30.9095C26.4648 30.0974 25.809 29.4391 25 29.4391C24.191 29.4391 23.5352 30.0974 23.5352 30.9095C23.5352 31.7215 24.191 32.3799 25 32.3799Z" fill="white"/>
</g>
<defs>
<clipPath id="clip0">
<rect width="50" height="50" fill="white"/>
</clipPath>
</defs>
</svg>
