<svg width="50" height="50" viewBox="0 0 50 50" fill="none" xmlns="http://www.w3.org/2000/svg">
<path d="M50 41.6667C50 46.25 46.25 50 41.6667 50H8.33333C3.75 50 0 46.25 0 41.6667V8.33333C0 3.75 3.75 0 8.33333 0H41.6667C46.25 0 50 3.75 50 8.33333V41.6667Z" fill="black"/>
<path d="M13.5866 10.866H27.7614C30.3758 10.866 32.4755 11.4624 34.0523 12.6634C35.6291 13.8643 36.4216 15.6699 36.4216 18.0964C36.4216 19.5669 36.0621 20.8251 35.3431 21.8709C34.6242 22.9166 33.5948 23.7336 32.2549 24.3055V24.3872C34.0523 24.7712 35.4167 25.6209 36.3399 26.9362C37.2631 28.2598 37.7288 29.9101 37.7288 31.9035C37.7288 33.0473 37.5245 34.1176 37.116 35.1062C36.7075 36.1029 36.0703 36.9607 35.1961 37.6797C34.3219 38.3986 33.2108 38.9705 31.8464 39.3954C30.482 39.8202 28.8644 40.0326 26.9853 40.0326H13.5866V10.866ZM18.6928 23.08H27.0261C28.2516 23.08 29.2729 22.7369 30.0899 22.0343C30.9069 21.3317 31.3154 20.3349 31.3154 19.0277C31.3154 17.5571 30.9477 16.5196 30.2124 15.9232C29.4771 15.3268 28.415 15.0245 27.0261 15.0245H18.6928V23.08ZM18.6928 35.866H27.7206C29.2729 35.866 30.482 35.4656 31.3317 34.6568C32.1895 33.8562 32.6225 32.7124 32.6225 31.2418C32.6225 29.7957 32.1977 28.6928 31.3317 27.9085C30.4657 27.1241 29.2729 26.7483 27.7206 26.7483H18.6928V35.866Z" fill="white"/>
</svg>
