<svg width="24" height="50" viewBox="0 0 24 50" fill="none" xmlns="http://www.w3.org/2000/svg">
<g clip-path="url(#clip0)">
<path fill-rule="evenodd" clip-rule="evenodd" d="M21.1774 27.5049L22.8121 12.8226C22.8121 12.8226 21.2637 14.1049 11.4072 14.1049C1.54998 14.1049 0.161271 12.8492 0.161271 12.8492L1.45643 25.3307C2.14998 23.3573 3.80321 19.3428 6.41208 19.4774C7.59756 19.5379 9.17821 21.8194 7.82337 21.8968C7.25079 21.9291 7.19434 20.7581 6.51692 20.5863C6.0274 20.4621 5.34514 20.8605 4.90401 21.292C4.02498 22.1524 2.13385 25.5468 2.38385 27.2395C2.70321 29.3968 5.36208 26.4895 5.81127 25.6266C6.12901 25.0186 6.34353 23.217 7.03708 23.4057C7.72901 23.5944 6.97579 25.4541 6.47256 27.0976C5.90805 28.9444 5.61208 30.8944 4.90482 30.6702C4.19756 30.4444 5.34837 28.0637 5.30805 27.646C4.64272 28.2589 3.4153 29.8153 1.84595 29.0412L2.67659 37.0524C2.67659 37.0524 4.8403 38.7621 11.358 38.7621C17.8742 38.7621 20.1201 37.0799 20.1201 37.0799L21.0419 28.8016C20.1387 29.6162 17.671 30.9145 17.508 29.35C17.3742 28.0557 20.3435 26.1791 19.5806 26.1162C17.9411 26.2129 17.1242 28.0412 16.2984 29.9549C15.9968 30.6565 14.9621 33.6516 14.2822 33.2831C13.6048 32.9137 15.1629 30.4524 15.5992 28.9928C15.0951 29.3605 13.2468 30.796 12.7709 29.4524C12.0048 30.1016 10.3677 30.4541 10.5532 28.746C10.1468 29.4686 9.23063 30.4758 8.13385 30.0573C6.69353 29.5073 8.97014 24.9162 9.53708 25.1476C10.1016 25.3791 9.42176 26.425 9.24353 26.8315C8.85159 27.725 8.39917 28.8492 8.70321 29.0791C9.21934 29.4726 10.6306 27.5871 10.6605 27.5468C10.9242 27.1984 11.6766 24.9178 12.2814 25.1807C12.8863 25.442 10.7709 28.4516 11.5621 29.0492C11.7234 29.1702 12.375 28.975 12.7718 28.5452C13.0298 28.2678 12.9411 27.6524 13.796 25.6097C14.654 23.567 15.4169 21.0234 16.0056 21.217C16.5919 21.4105 16.108 22.717 15.8976 23.2032C14.9105 25.4887 13.2 29.2629 14.0064 28.9774C14.8129 28.6912 15.2322 28.675 16.0226 27.7516C16.8129 26.8266 16.7758 25.3041 17.3024 25.3371C17.8298 25.3694 17.7411 25.8565 17.6137 26.2283C18.1314 25.6363 20.0693 24.3871 20.5371 25.6234C21.0935 27.0879 17.7661 29.2024 18.5959 29.0952C19.3661 28.9936 20.5943 28.2355 21.1927 27.5113L21.1774 27.5049ZM14.4274 10.4549C13.5064 10.421 12.5403 10.4033 11.5451 10.4033C5.20643 10.4033 0.0693359 11.1258 0.0693359 12.0162C0.0693359 12.9065 5.20643 13.6291 11.5435 13.6291C17.8806 13.6291 23.0177 12.9065 23.0177 12.0162C23.0177 11.371 20.3218 10.8145 16.4274 10.5565L17.2218 7.41696L22.9048 1.43712L22.8782 1.41454C22.8943 1.40406 22.9121 1.39035 22.9266 1.37422C23.0718 1.2089 22.854 0.787122 22.4427 0.43067C22.0314 0.0758315 21.5822 -0.0773943 21.4395 0.0863154C21.4201 0.10809 21.4072 0.134702 21.4008 0.162928L15.3871 6.53228L14.4242 10.4549H14.4274ZM17.7758 48.4016C17.7758 49.25 14.9774 49.9379 11.5258 49.9379C8.07418 49.9379 5.27579 49.25 5.27579 48.4016L4.7403 40.4871L3.22579 37.9726C3.22579 37.9726 6.25159 39.2065 11.3951 39.2065C16.5403 39.2065 19.6129 37.9484 19.6129 37.9484L18.2629 40.2549L17.7742 48.4016H17.7758ZM15.879 12.4549C16.0726 12.4291 16.3709 12.3928 16.3709 12.1589C16.3709 12.0218 16.2548 11.9412 16.1226 11.9008L16.0242 12.0541C16.1048 12.0742 16.1532 12.0992 16.1532 12.125C16.1516 12.2121 15.5322 12.2541 15.0209 12.2605C14.5097 12.267 13.8403 12.2065 13.8411 12.1186C13.8411 12.1 13.8653 12.0823 13.9097 12.0678L13.8105 11.9121C13.7056 11.9589 13.6234 12.025 13.6234 12.1428C13.6234 12.2041 13.65 12.2936 13.7 12.3387C13.8855 12.5081 14.3492 12.5137 15.0032 12.5105C15.6564 12.5081 15.8798 12.4581 15.8798 12.4581L15.879 12.4549Z" fill="#F7F8F8"/>
</g>
<defs>
<clipPath id="clip0">
<rect width="23.0645" height="50" fill="white"/>
</clipPath>
</defs>
</svg>
