<svg width="50" height="50" viewBox="0 0 50 50" fill="none" xmlns="http://www.w3.org/2000/svg">
<rect width="50" height="50" fill="white"/>
<path d="M49.1667 0H0.833301C0.372461 0 0 0.37334 0 0.833301V49.1666C0 49.6267 0.372461 50 0.833301 50H49.1666C49.6274 50 49.9999 49.6267 49.9999 49.1667V0.833301C50 0.37334 49.6275 0 49.1667 0ZM28.3333 38.3333C28.3333 42.4683 24.9691 45.8333 20.8333 45.8333C16.6975 45.8333 13.3333 42.4683 13.3333 38.3333C13.3333 37.8733 13.7058 37.5 14.1666 37.5C14.6274 37.5 14.9999 37.8733 14.9999 38.3333C14.9999 41.55 17.6174 44.1666 20.8332 44.1666C24.049 44.1666 26.6665 41.5499 26.6665 38.3333V18.3333C26.6665 17.8733 27.039 17.5 27.4998 17.5C27.9606 17.5 28.3331 17.8733 28.3331 18.3333V38.3333H28.3333ZM38.3333 30.8333C42.4691 30.8333 45.8333 34.1983 45.8333 38.3333C45.8333 42.4683 42.4691 45.8333 38.3333 45.8333C34.1975 45.8333 30.8333 42.4683 30.8333 38.3333C30.8333 37.8733 31.2058 37.5 31.6666 37.5C32.1274 37.5 32.4999 37.8733 32.4999 38.3333C32.4999 41.55 35.1174 44.1666 38.3332 44.1666C41.549 44.1666 44.1665 41.5499 44.1665 38.3333C44.1665 35.1166 41.549 32.5 38.3332 32.5C34.1974 32.5 30.8332 29.135 30.8332 25C30.8332 20.865 34.1974 17.5 38.3332 17.5C42.469 17.5 45.8332 20.865 45.8332 25C45.8332 25.46 45.4607 25.8333 44.9999 25.8333C44.5391 25.8333 44.1666 25.46 44.1666 25C44.1666 21.7833 41.5491 19.1667 38.3333 19.1667C35.1175 19.1667 32.5 21.7834 32.5 25C32.5 28.2166 35.1175 30.8333 38.3333 30.8333Z" fill="black"/>
</svg>
