<svg width="50" height="50" viewBox="0 0 50 50" fill="none" xmlns="http://www.w3.org/2000/svg">
<path d="M50 25C50 25.7725 49.9653 26.5357 49.8959 27.2898C49.8429 27.8868 49.7673 28.4766 49.6714 29.0593C47.7326 40.9357 37.4245 50 25 50C18.6714 50 12.8929 47.649 8.48877 43.7714C6.86123 42.3397 5.42139 40.6989 4.21123 38.8908C1.55098 34.9184 0 30.1398 0 25C0 11.1929 11.1929 0 25 0C38.8071 0 50 11.1929 50 25Z" fill="#F2F2F2"/>
<path d="M43.6296 27.8296C42.8714 28.1163 42.9021 28.1214 42.501 27.3908C41.9888 26.4603 41.7163 25.4816 41.6928 24.4174C41.6734 23.5041 41.9234 22.6552 42.2377 21.8225C42.4887 21.1603 42.1622 20.9266 41.5887 20.8663C41.1713 20.8234 40.7408 20.8275 40.3224 20.8704C39.2346 20.9816 39.1275 21.0755 38.8387 22.1316C38.6673 22.7582 38.5305 23.3898 38.2458 23.9847C37.5438 25.4489 36.7458 26.8592 35.9275 28.2592C35.7805 28.5112 35.6591 28.7826 35.452 28.9979C34.8591 28.1102 34.6357 27.1296 34.5857 26.101C34.5357 25.0856 34.8469 24.1418 35.1887 23.2081C35.304 22.8938 35.2081 22.6989 34.9367 22.5632C34.8162 22.503 34.6816 22.4469 34.5499 22.4366C33.852 22.3815 33.1561 22.3896 32.4754 22.5805C32.1693 22.6651 31.9693 22.8366 31.9009 23.1805C31.7683 23.8529 31.5612 24.506 31.2815 25.1346C30.506 26.8754 29.7356 28.6192 28.9611 30.3611C28.2876 31.8744 27.6243 33.3917 26.8264 34.8448C26.7702 34.9478 26.7234 35.1265 26.5826 35.0907C26.4397 35.055 26.4897 34.8795 26.4835 34.7591C26.4376 33.902 26.6713 33.0846 26.8702 32.2662C27.1856 30.9713 27.5304 29.6825 27.8652 28.3917C27.9611 28.0213 27.7998 27.7723 27.4927 27.5947C27.0509 27.3406 26.6111 27.3284 26.1326 27.6845C26.1979 27.1579 26.2264 26.6957 26.2039 26.2335C26.153 25.2029 25.6753 24.5325 24.8438 24.3773C24.2367 24.2641 23.6621 24.4406 23.1193 24.6978C21.8539 25.2968 20.8367 26.1998 19.9815 27.2957C19.8815 27.4232 19.7805 27.5406 19.6356 27.6191C18.0305 28.4937 16.4264 29.3682 14.8254 30.2508C14.6499 30.3487 14.5367 30.3212 14.4101 30.1854C13.6039 29.3212 12.6683 28.6079 11.7417 27.8845C10.4468 26.8723 9.10706 25.9131 7.98968 24.6927C7.33665 23.9784 6.79173 23.1957 6.51927 22.2509C6.07435 20.706 6.40706 19.2672 7.14788 17.8999C8.02445 16.2825 9.32445 15.0336 10.758 13.9213C13.0346 12.156 15.5315 10.7539 18.1631 9.5999C21.1101 8.30908 24.1672 7.47744 27.4233 7.60293C28.7131 7.65293 29.9651 7.87636 31.1141 8.508C31.9274 8.95498 32.4661 9.60088 32.6182 10.5488C32.7968 11.659 32.5304 12.6846 32.0376 13.657C30.9367 15.8295 29.1867 17.3683 27.1182 18.5733C25.3957 19.5764 23.5376 20.2132 21.5712 20.5468C20.4845 20.7314 19.3937 20.8427 18.3008 20.6764C17.0467 20.4855 15.8875 20.0662 15.0294 19.056C14.9304 18.9396 14.8049 18.859 14.6366 18.9406C14.4641 19.0243 14.4774 19.1773 14.4937 19.3243C14.5059 19.4253 14.5335 19.5273 14.5692 19.6233C14.7988 20.2428 15.2284 20.7101 15.7314 21.1183C17.0396 22.1825 18.5896 22.4948 20.2171 22.5265C21.81 22.5581 23.3784 22.3561 24.9304 21.9847C28.4314 21.1479 31.3641 19.4306 33.5049 16.4877C34.7845 14.7285 35.5948 12.7897 35.5233 10.5714C35.4774 9.16425 35.0038 7.92138 33.9784 6.91123C32.7589 5.7122 31.2457 5.10918 29.6222 4.74697C27.814 4.34492 25.9875 4.28779 24.1426 4.5082C22.5375 4.7 20.9692 5.02861 19.4426 5.5541C17.1069 6.35918 14.8508 7.34795 12.6916 8.55C10.4794 9.78056 8.39466 11.1898 6.56615 12.9551C4.94779 14.5173 3.55697 16.2408 2.77327 18.3806C2.43861 19.2969 2.19779 20.2388 2.4223 21.2296C2.71009 22.5051 3.33861 23.6092 4.16517 24.6051C5.41517 26.1133 6.94886 27.301 8.5305 28.4356C9.80091 29.3478 11.1305 30.1785 12.3509 31.1591C12.6968 31.4366 12.6948 31.4366 12.2876 31.6499C11.8121 31.8978 11.3315 32.1366 10.8642 32.4009C8.97962 33.4663 7.15824 34.6214 5.67142 36.2266C4.93978 37.0174 4.44281 37.9052 4.21126 38.8908C5.42142 40.699 6.86126 42.3398 8.4888 43.7714C11.2654 43.5551 13.3909 42.1102 14.9613 39.7204C15.7195 38.5663 16.0745 37.2602 16.2082 35.8826C16.3256 34.6684 16.2021 33.4928 15.845 32.3336C15.7827 32.1295 15.5511 31.9265 15.6419 31.7469C15.7266 31.5815 15.9818 31.4978 16.1695 31.3897C16.9266 30.9499 17.6858 30.5163 18.4654 30.0684C18.4991 30.2357 18.4337 30.3337 18.4052 30.4397C17.9582 32.0796 17.647 33.7326 17.9868 35.4367C18.1981 36.4979 18.5501 37.4969 19.2195 38.3755C19.9082 39.2796 21.446 39.1765 22.0704 38.351C22.6633 37.5673 23.0562 36.6836 23.4654 35.804C23.6899 35.3224 23.8959 34.8326 24.1103 34.3458C24.0704 34.9315 24.0725 35.5029 24.094 36.0724C24.1154 36.6336 24.2052 37.1877 24.497 37.6836C24.848 38.2795 25.5082 38.453 26.1215 38.1346C26.7685 37.7988 27.2093 37.2458 27.5521 36.6458C29.0225 34.0652 30.3868 31.4295 31.5163 28.6774C31.7572 28.0928 32.0041 27.5091 32.2766 26.8591C32.3184 27.0724 32.346 27.2029 32.3715 27.3336C32.6225 28.6448 33.0695 29.8856 33.7164 31.0519C33.8552 31.3019 33.8399 31.4744 33.6644 31.7142C33.0685 32.5254 32.4154 33.2887 31.7715 34.0601C31.2307 34.7091 30.6521 35.3295 30.195 36.0437C29.7848 36.6866 30.0204 37.3447 30.7032 37.4907C30.9133 37.5356 31.1348 37.5489 31.3501 37.5458C32.543 37.5315 33.644 37.1754 34.6696 36.5917C36.0501 35.805 36.8686 34.6519 36.8308 33.0101C36.8134 32.2631 36.6114 31.5458 36.3104 30.861C36.2441 30.709 36.241 30.5988 36.34 30.456C37.2961 29.0865 38.141 27.6509 38.9175 26.1733C39.0553 25.9132 39.1522 25.6243 39.3746 25.3703C39.4042 25.4733 39.4277 25.5377 39.441 25.604C39.6879 26.8285 40.0205 28.0254 40.6451 29.1183C40.8164 29.4173 40.7308 29.5692 40.4941 29.7692C39.6787 30.4621 38.991 31.2702 38.4512 32.1958C38.0308 32.9162 37.743 33.6855 37.7461 34.5295C37.7492 35.4683 38.4675 36.0213 39.3828 35.8009C40.3369 35.5723 41.2216 35.1835 42.0155 34.6029C43.7451 33.3366 44.2522 32.0009 43.7104 30.1366C43.4982 29.4029 43.5022 29.4152 44.2379 29.1928C45.8471 28.707 47.4797 28.6866 49.1205 28.954C49.3063 28.9846 49.49 29.0193 49.6715 29.0591C49.7674 28.4765 49.8429 27.8866 49.896 27.2896C47.797 26.7766 45.701 27.0429 43.6296 27.8296ZM9.62757 40.9571C9.16126 41.1225 8.6766 41.1929 8.1806 41.1541C7.56322 41.1051 7.17142 40.6694 7.13158 40.0143C7.08665 39.2592 7.31019 38.5775 7.64076 37.9143C8.24173 36.7102 9.25091 35.8929 10.2806 35.0908C11.2816 34.3102 12.3572 33.6438 13.4449 32.9959C13.7744 32.8 13.7795 32.802 13.855 33.1949C13.953 33.699 14.0408 34.2041 14.008 34.6623C14.0939 37.4101 12.098 40.0826 9.62757 40.9571ZM24.6051 27.101C24.4317 28.2592 24.0531 29.3622 23.65 30.4519C23.101 31.9397 22.5663 33.4346 21.8755 34.8652C21.7173 35.1948 21.551 35.5224 21.295 35.7907C21.0532 36.0448 20.8388 36.0152 20.6715 35.705C20.345 35.0988 20.3858 34.4244 20.3327 33.9346C20.3481 31.4774 21.1726 29.4692 22.5307 27.6642C22.9103 27.1611 23.395 26.7519 24.0368 26.5876C24.4725 26.4766 24.6735 26.652 24.6051 27.101ZM34.1154 34.3755C33.65 35.1796 32.9796 35.7643 32.1572 36.1806C32.0694 36.2244 31.9562 36.3019 31.8766 36.1989C31.8011 36.1019 31.9225 36.0377 31.9776 35.9765C32.795 35.0836 33.6021 34.1836 34.3296 33.2152C34.3409 33.1999 34.3684 33.1978 34.4306 33.1714C34.4235 33.6194 34.3255 34.0133 34.1154 34.3755ZM39.7592 34.3408C39.6378 34.3979 39.497 34.5051 39.3786 34.4133C39.2481 34.3123 39.3 34.1337 39.3399 33.997C39.5256 33.3735 39.7756 32.7766 40.1204 32.2204C40.4102 31.752 40.7695 31.3429 41.1643 30.9612C41.3235 30.8082 41.3949 30.8266 41.449 31.047C41.5051 31.2725 41.5102 31.4979 41.5143 31.7275C41.5041 32.9837 40.8663 33.8194 39.7592 34.3408Z" fill="black"/>
</svg>
