<svg width="50" height="50" viewBox="0 0 50 50" fill="none" xmlns="http://www.w3.org/2000/svg">
<g clip-path="url(#clip0)">
<path d="M48.2396 28.9437C49.7313 16.3874 47.5229 8.46035 43.5396 4.87493L43.5417 4.87285C37.1125 -1.25007 15.4 -2.15632 7.70835 5.14785C4.25418 8.72076 3.03751 13.9645 2.90418 20.4562C2.77085 26.9499 2.61251 39.1145 13.9479 42.4145H13.9583L13.9479 47.4541C13.9479 47.4541 13.8708 49.4958 15.175 49.9062C16.6667 50.3895 17.3417 49.4416 21.9813 43.8999C29.7396 44.5729 35.6979 43.0312 36.375 42.8062C37.9417 42.2812 46.8063 41.1083 48.2396 28.9437ZM22.7458 40.3541C22.7458 40.3541 17.8354 46.477 16.3083 48.0666C15.8083 48.5833 15.2604 48.5354 15.2688 47.5104C15.2688 46.8374 15.3063 39.1437 15.3063 39.1437C5.69585 36.3895 6.26251 26.0312 6.36668 20.6124C6.47085 15.1916 7.46251 10.752 10.3875 7.76243C17.1354 1.43535 36.1709 2.84993 41.0209 7.40826C46.95 12.6645 44.8396 27.5145 44.8521 28.0208C43.6334 38.1749 36.45 38.8187 35.1292 39.2583C34.5646 39.4458 29.325 40.7937 22.7458 40.3541V40.3541Z" fill="black"/>
<path d="M25.4625 8.9519C24.6604 8.9519 24.6604 10.2019 25.4625 10.2123C31.6854 10.2602 36.8104 14.5977 36.8667 22.554C36.8667 23.3936 38.0959 23.3832 38.0854 22.5436H38.0834C38.0167 13.9707 32.4209 8.99982 25.4625 8.9519V8.9519Z" fill="black"/>
<path d="M33.6479 21.2355C33.6292 22.0647 34.8563 22.1042 34.8667 21.2647C34.9688 16.5376 32.0542 12.6438 26.5771 12.2334C25.775 12.1751 25.6917 13.4355 26.4917 13.4938C31.2417 13.8542 33.7438 17.0959 33.6479 21.2355V21.2355Z" fill="black"/>
<path d="M32.3354 26.6126C31.3063 26.0168 30.2583 26.3876 29.825 26.9731L28.9188 28.146C28.4583 28.7418 27.5979 28.6626 27.5979 28.6626C21.3188 27.0022 19.6396 20.4314 19.6396 20.4314C19.6396 20.4314 19.5625 19.5418 20.1375 19.0647L21.2708 18.1272C21.8375 17.6772 22.1958 16.5939 21.6188 15.5293C20.0771 12.7439 19.0417 11.7835 18.5146 11.046C17.9604 10.3522 17.1271 10.196 16.2604 10.6647H16.2417C14.4396 11.7189 12.4667 13.6918 13.0979 15.7231C14.175 17.8647 16.1542 24.6918 22.4625 29.8501C25.4271 32.2897 30.1188 34.7897 32.1104 35.3668L32.1292 35.396C34.0917 36.0501 36 34.0001 37.0188 32.1439V32.1293C37.4708 31.2314 37.3208 30.3814 36.6604 29.8251C35.4896 28.6835 33.7229 27.4231 32.3354 26.6126Z" fill="black"/>
<path d="M27.4354 16.8833C29.4375 17 30.4083 18.0458 30.5125 20.1938C30.55 21.0333 31.7688 20.975 31.7313 20.1354C31.5979 17.3312 30.1354 15.7687 27.5021 15.6229C26.7 15.575 26.625 16.8354 27.4354 16.8833V16.8833Z" fill="black"/>
</g>
<defs>
<clipPath id="clip0">
<rect width="50" height="50" fill="white"/>
</clipPath>
</defs>
</svg>
