<svg width="50" height="50" viewBox="0 0 50 50" fill="none" xmlns="http://www.w3.org/2000/svg">
<g clip-path="url(#clip0)">
<path d="M44.6293 0H5.37071C2.40936 0 0 2.40936 0 5.37071V44.6293C0 47.5906 2.40936 50 5.37071 50H44.6293C47.5906 50 50 47.5906 50 44.6293V5.37071C50 2.40936 47.5906 0 44.6293 0V0ZM5.37071 2.92969H44.6293C45.9751 2.92969 47.0703 4.02489 47.0703 5.37071V11.8164H2.92969V5.37071C2.92969 4.02489 4.02489 2.92969 5.37071 2.92969ZM44.6293 47.0703H5.37071C4.02489 47.0703 2.92969 45.9751 2.92969 44.6293V14.7461H47.0703V44.6293C47.0703 45.9751 45.9751 47.0703 44.6293 47.0703Z" fill="white"/>
<path d="M44.043 7.42188C44.043 8.23097 43.3872 8.88672 42.5781 8.88672C41.769 8.88672 41.1133 8.23097 41.1133 7.42188C41.1133 6.61278 41.769 5.95703 42.5781 5.95703C43.3872 5.95703 44.043 6.61278 44.043 7.42188Z" fill="#F85A40"/>
<path d="M38.1836 7.42188C38.1836 8.23097 37.5278 8.88672 36.7188 8.88672C35.9097 8.88672 35.2539 8.23097 35.2539 7.42188C35.2539 6.61278 35.9097 5.95703 36.7188 5.95703C37.5278 5.95703 38.1836 6.61278 38.1836 7.42188Z" fill="#F85A40"/>
<path d="M32.3242 7.42188C32.3242 8.23097 31.6685 8.88672 30.8594 8.88672C30.0503 8.88672 29.3945 8.23097 29.3945 7.42188C29.3945 6.61278 30.0503 5.95703 30.8594 5.95703C31.6685 5.95703 32.3242 6.61278 32.3242 7.42188Z" fill="#F85A40"/>
<path d="M42.5781 17.6758H7.42188C6.61278 17.6758 5.95703 18.3315 5.95703 19.1406V27.9297C5.95703 28.7388 6.61278 29.3945 7.42188 29.3945H42.5781C43.3872 29.3945 44.043 28.7388 44.043 27.9297V19.1406C44.043 18.3315 43.3872 17.6758 42.5781 17.6758ZM41.1133 26.4648H8.88672V20.6055H41.1133V26.4648Z" fill="#F85A40"/>
<path d="M32.1133 32H17.4648C16.6557 32 16 32.6557 16 33.4648V42.2539C16 43.063 16.6557 43.7188 17.4648 43.7188H32.1133C32.9224 43.7188 33.5781 43.063 33.5781 42.2539V33.4648C33.5781 32.6557 32.9224 32 32.1133 32ZM30.6484 40.7891H18.9297V34.9297H30.6484V40.7891Z" fill="#F85A40"/>
</g>
<defs>
<clipPath id="clip0">
<rect width="50" height="50" fill="white"/>
</clipPath>
</defs>
</svg>
